<?xml version="1.0" encoding="utf-8"?>
<!-- Generator: Adobe Illustrator 26.4.1, SVG Export Plug-In . SVG Version: 6.00 Build 0)  -->
<svg version="1.1" id="_Слой_1" xmlns="http://www.w3.org/2000/svg" xmlns:xlink="http://www.w3.org/1999/xlink" x="0px"
	 y="0px" viewBox="0 0 200 199.5" style="enable-background:new 0 0 200 199.5;" xml:space="preserve">
<style type="text/css">
	.st0{fill:#FFFFFF;}
</style>
<path class="st0" d="M199.1,86.4c-0.4-2.8-0.9-5.6-1.5-8.4v0c-10-44.7-49.9-78-97.6-78S12.4,33.4,2.4,78c0,0,0,0,0,0.1
	c-0.7,3-1.2,6-1.6,9h0C0.3,91.3,0,95.6,0,100s0.2,8.3,0.8,12.3c0.8,6.5,2.2,12.8,4.2,18.9c0.4,1.2,0.8,2.3,1.3,3.5
	c3.4,8.8,7.6,16.8,12.7,23.9c16,22.1,40.9,37.4,69.4,40.7c3,0.2,6,0.2,9,0.2c5.1-0.1,10.2-0.1,15.4-0.3c5.2-0.7,10.2-1.7,15.1-3.1
	c0.1,0,0.3-0.1,0.4-0.1c4.2-1.3,8.2-2.7,12.1-4.4c0,0,0,0,0,0c0.2-0.1,0.4-0.2,0.6-0.3s0.4-0.2,0.6-0.3c13-6,24.6-14.6,33.9-25.3
	c15.3-17.6,24.6-40.5,24.6-65.7C200,95.4,199.7,90.9,199.1,86.4L199.1,86.4z M180.2,133.9c-1.6,3.8-3.5,7.4-5.6,10.9
	c-5.3-5.3-11.8-9-18.4-12.4c-8-4.1-16.4-7.2-24.8-10.4c-0.3-0.1-0.9,0.1-1.2,0.3c-2.9,2.3-5.7,4.7-8.7,6.8
	c-4.4,3.1-9.2,5.6-14.6,6.3c-11.1,1.5-21.4-0.4-30.4-7.6c-2.3-1.8-4.6-3.7-6.8-5.6c-0.3-0.2-0.8-0.4-1.1-0.3
	c-9.1,3.4-18.2,6.8-26.8,11.4c-5.9,3.1-11.6,6.6-16.4,11.4c-2.1-3.5-4-7.1-5.6-10.9C15.3,123.1,13,111.7,13,100s2.3-23.2,6.8-33.9
	c4.4-10.4,10.7-19.7,18.6-27.7c8-8,17.3-14.3,27.7-18.6C76.9,15.3,88.3,13,100,13s23.2,2.3,33.9,6.8c10.4,4.4,19.7,10.7,27.7,18.6
	c8,8,14.3,17.3,18.6,27.7c4.5,10.7,6.8,22.1,6.8,33.9S184.7,123.1,180.2,133.9L180.2,133.9z"/>
<path class="st0" d="M136.2,94.2c-3.5,9.7-8.7,18.3-16.7,25c-4.1,3.4-8.6,6.1-13.9,7.2c-6.8,1.4-13.1,0.2-19.1-3.1
	c-7.1-3.9-12.4-9.6-16.6-16.4c-4.3-7-7.3-14.5-8.6-22.7c-0.4-2.5-0.5-5-0.8-7.6c0-18.4,12-35.2,29.2-40c13.1-3.6,25-0.7,35.3,8.2
	c7.4,6.4,12,14.5,13.6,24.2C140,77.6,139.1,86,136.2,94.2z"/>
</svg>
